# xmcd
#
# Track frame offsets:
#	150
#	17504
#	34687
#	54969
#	73002
#	85902
#	100431
#	120236
#	138196
#	156839
#	172273
#	191248
#	209489
#	232227
#	242573
#
# Disc length: 3423 seconds
#
# Revision: 3
# Processed by: cddbd v1.4PL0 Copyright (c) Steve Scherf et al.
# Submitted via: audiograbber 1.81.02
#
DISCID=cf0d5d0f
DTITLE=Pro Musikum - 25 Jahre Pro Musikum
DYEAR=1998
DGENRE=
TTITLE0=Rambunctions Boy
TTITLE1=I Saw The Light
TTITLE2=Dixieland Delight
TTITLE3=He Thinks He'll Keep Her
TTITLE4=I'm In A Hurry
TTITLE5=In My Dreams
TTITLE6=The Boxer
TTITLE7=Nights In White Satin
TTITLE8=Tell Me Why
TTITLE9=Achy Breaky Heart
TTITLE10=She's Love With The Boy
TTITLE11=Brückenschläfer
TTITLE12=Ruby Tuesday
TTITLE13=San Antonio
TTITLE14=15 Jahre Warten
EXTD=
EXTT0=
EXTT1=
EXTT2=
EXTT3=
EXTT4=
EXTT5=
EXTT6=
EXTT7=
EXTT8=
EXTT9=
EXTT10=
EXTT11=
EXTT12=
EXTT13=
EXTT14=
PLAYORDER=
